{"accessors" : [{"bufferView" : 0, "byteOffset" : 0, "componentType" : 5125, "count" : 74622, "type" : "SCALAR", "max" : [74621], "min" : [0]}, {"bufferView" : 1, "byteOffset" : 0, "componentType" : 5126, "count" : 74622, "type" : "VEC3", "max" : [66.23269653320312, 68.5093994140625, 88.39610290527344], "min" : [-66.23269653320312, -68.5093994140625, 0]}, {"bufferView" : 1, "byteOffset" : 12, "componentType" : 5126, "count" : 74622, "type" : "VEC3", "max" : [0.9999844431877136, 0.999869167804718, 1.0000044107437134], "min" : [-0.9999844431877136, -0.999869167804718, -1.0000044107437134]}], "asset" : {"generator" : "Aspose.3D 21.1", "version" : "2.0"}, "buffers" : [{"uri" : "buffer.bin", "byteLength" : 2089424}], "bufferViews" : [{"buffer" : 0, "byteOffset" : 0, "byteLength" : 298488, "target" : 34963}, {"buffer" : 0, "byteOffset" : 298492, "byteLength" : 1790928, "byteStride" : 24, "target" : 34962}], "meshes" : [{"primitives" : [{"attributes" : {"POSITION" : 1, "NORMAL" : 2}, "indices" : 0, "mode" : 4}]}], "nodes" : [{"mesh" : 0, "name" : "OpenSCAD_Model"}], "scene" : 0, "scenes" : [{"nodes" : [0]}]}