{"accessors" : [{"bufferView" : 0, "byteOffset" : 0, "componentType" : 5123, "count" : 39978, "type" : "SCALAR", "max" : [39977], "min" : [0]}, {"bufferView" : 1, "byteOffset" : 0, "componentType" : 5126, "count" : 39978, "type" : "VEC3", "max" : [38.61411666870117, 43.58665466308594, 4], "min" : [-38.61411666870117, -43.58665466308594, -4]}, {"bufferView" : 1, "byteOffset" : 12, "componentType" : 5126, "count" : 39978, "type" : "VEC3", "max" : [1.0000044107437134, 1.0000044107437134, 1.0000044107437134], "min" : [-1.0000044107437134, -1.0000044107437134, -1.0000044107437134]}], "asset" : {"generator" : "Aspose.3D 21.1", "version" : "2.0"}, "buffers" : [{"uri" : "buffer.bin", "byteLength" : 1039436}], "bufferViews" : [{"buffer" : 0, "byteOffset" : 0, "byteLength" : 79956, "target" : 34963}, {"buffer" : 0, "byteOffset" : 79960, "byteLength" : 959472, "byteStride" : 24, "target" : 34962}], "meshes" : [{"primitives" : [{"attributes" : {"POSITION" : 1, "NORMAL" : 2}, "indices" : 0, "mode" : 4}]}], "nodes" : [{"mesh" : 0, "name" : "JI Bronze Medal - State_v3"}], "scene" : 0, "scenes" : [{"nodes" : [0]}]}